<?xml version="1.0" encoding="UTF-8"?>
<svg width="17px" height="17px" viewBox="0 0 17 17" version="1.1" xmlns="http://www.w3.org/2000/svg" xmlns:xlink="http://www.w3.org/1999/xlink">
    <!-- Generator: Sketch 3.6 (26304) - http://www.bohemiancoding.com/sketch -->
    <title>Page 1</title>
    <desc>Created with Sketch.</desc>
    <defs></defs>
    <g id="Page-1" stroke="none" stroke-width="1" fill="none" fill-rule="evenodd">
        <g id="Mis-Billeteras---Prop" transform="translate(-1103.000000, -1570.000000)" stroke="#D0BB2E" stroke-width="0.2" fill="#D0BB2E">
            <g id="Page-1" transform="translate(1104.000000, 1571.000000)">
                <g id="Group-3" transform="translate(0.000000, 0.030947)">
                    <path d="M7.499985,14.382686 C3.949575,14.382686 1.071405,11.4106812 1.071405,7.74451991 C1.071405,4.07838956 3.949575,1.10638477 7.499985,1.10638477 C11.050395,1.10638477 13.928565,4.07838956 13.928565,7.74451991 C13.924725,11.4090704 11.048805,14.3787208 7.499985,14.382686 M7.499985,3.40758743e-05 C3.357855,3.40758743e-05 -1.49999996e-05,3.46737816 -1.49999996e-05,7.74451991 C-1.49999996e-05,12.0216926 3.357855,15.4890367 7.499985,15.4890367 C11.642115,15.4890367 14.999985,12.0216926 14.999985,7.74451991 C14.995575,3.46926783 11.640285,0.00458785176 7.499985,3.40758743e-05" id="Fill-1"></path>
                </g>
                <path d="M7.499985,2.7968579 C7.204095,2.7968579 6.964275,3.04452755 6.964275,3.35003324 L6.964275,7.22232263 L3.214275,7.22232263 C2.918415,7.22232263 2.678565,7.46999228 2.678565,7.77549797 C2.678565,8.08103465 2.918415,8.32867332 3.214275,8.32867332 L7.499985,8.32867332 C7.795845,8.32867332 8.035725,8.08100367 8.035725,7.775467 L8.035725,3.35003324 C8.035725,3.04452755 7.795845,2.7968579 7.499985,2.7968579" id="Fill-4"></path>
            </g>
        </g>
    </g>
</svg>