<?xml version="1.0" encoding="UTF-8"?>
<svg width="17px" height="17px" viewBox="0 0 17 17" version="1.1" xmlns="http://www.w3.org/2000/svg" xmlns:xlink="http://www.w3.org/1999/xlink">
    <!-- Generator: Sketch 3.6 (26304) - http://www.bohemiancoding.com/sketch -->
    <title>Page 1</title>
    <desc>Created with Sketch.</desc>
    <defs>
        <path id="path-1" d="M14.99997,7.40875497 L14.99997,14.8174773 L0,14.8174773 L0,7.40875497 L0,3.25984502e-05 L14.99997,3.25984502e-05 L14.99997,7.40875497 L14.99997,7.40875497 Z"></path>
    </defs>
    <g id="Page-1" stroke="none" stroke-width="1" fill="none" fill-rule="evenodd">
        <g id="Mis-Billeteras---Prop" transform="translate(-1103.000000, -1570.000000)"  fill="#EA0000">
            <g id="Page-1" transform="translate(1104.000000, 1571.000000)" >
                <g id="Group-3" transform="translate(0.000000, 0.029605)">
                    <mask id="mask-2" fill="white">
                        <use xlink:href="#path-1"></use>
                    </mask>
                    <g id="Clip-2"></g>
                    <path d="M7.5,13.7590975 C3.94956,13.7590975 1.07142,10.9159496 1.07142,7.40874164 C1.07142,3.90156329 3.94956,1.05841537 7.5,1.05841537 C11.05041,1.05841537 13.92855,3.90156329 13.92855,7.40874164 C13.92471,10.9144086 11.04882,13.7553043 7.5,13.7590975 M7.5,3.25984502e-05 C3.35787,3.25984502e-05 0,3.31704344 0,7.40874164 C0,11.5004695 3.35787,14.8174803 7.5,14.8174803 C11.6421,14.8174803 14.99997,11.5004695 14.99997,7.40874164 C14.99559,3.31885117 11.6403,0.00438893679 7.5,3.25984502e-05" id="Fill-1" fill="#EA0000" mask="url(#mask-2)"></path>
                </g>
                <path d="M8.225244,7.43834399 L10.319664,5.36970561 C10.416984,5.27401435 10.470534,5.14661368 10.470504,5.01097449 C10.470504,4.87536494 10.416954,4.74796427 10.320024,4.65262862 C10.222974,4.55678917 10.094064,4.50395005 9.957024,4.50395005 C9.819954,4.50395005 9.691044,4.55678917 9.593994,4.65265825 L7.499934,6.72156334 L5.405544,4.65265825 C5.308494,4.55678917 5.179614,4.50395005 5.042604,4.50395005 C4.905414,4.50395005 4.776504,4.55690771 4.680624,4.65197665 C4.583154,4.74751974 4.529484,4.87495005 4.529484,5.01082631 C4.529484,5.14667295 4.583154,5.27410325 4.679964,5.36899438 L6.774744,7.4379291 L4.679904,9.50650821 C4.582464,9.60282181 4.529034,9.73078555 4.529484,9.86686926 C4.529874,10.0023603 4.583664,10.1292571 4.679274,10.2225776 C4.775964,10.3188912 4.904964,10.3719378 5.042544,10.3719378 C5.179644,10.3719378 5.308584,10.3190987 5.405484,10.2233185 L7.499934,8.15548026 L9.593994,10.2237037 C9.691314,10.3198099 9.820224,10.3727676 9.957024,10.3727676 C10.093794,10.3727676 10.222704,10.3198099 10.319064,10.2246521 C10.416324,10.1296128 10.470114,10.0026566 10.470504,9.86719524 C10.470894,9.7310819 10.417434,9.6031478 10.319994,9.50686383 L8.225244,7.43834399 Z" id="Fill-4" fill="#EA0000"></path>
            </g>
        </g>
    </g>
</svg>
