<?xml version="1.0" encoding="UTF-8"?>
<svg width="18px" height="17px" viewBox="0 0 18 17" version="1.1" xmlns="http://www.w3.org/2000/svg" xmlns:xlink="http://www.w3.org/1999/xlink">
    <!-- Generator: Sketch 3.6 (26304) - http://www.bohemiancoding.com/sketch -->
    <title>Group 9</title>
    <desc>Created with Sketch.</desc>
    <defs></defs>
    <g id="Page-1" stroke="none" stroke-width="1" fill="none" fill-rule="evenodd">
        <g id="Mis-Billeteras---Prop" transform="translate(-1103.000000, -1646.000000)" stroke="#EA7100" stroke-width="0.5" fill="#EA7100">
            <g id="Group-9" transform="translate(1104.000000, 1647.000000)">
                <g id="Page-1-Copy-7" transform="translate(12.500000, 7.500000) rotate(-180.000000) translate(-12.500000, -7.500000) translate(9.000000, 0.000000)">
                    <path d="M3.09004198,0.171855 C3.08986914,0.172035 3.08966749,0.172185 3.08949465,0.172395 L0.163840329,3.234015 C-0.0553201646,3.463395 -0.0545135802,3.834375 0.165741564,4.062675 C0.385996708,4.290975 0.74221893,4.290075 0.96140823,4.060725 L2.9256716,2.005125 L2.9256716,14.414055 C2.9256716,14.737665 3.17755638,14.999985 3.488293,14.999985 C3.79902963,14.999985 4.0509144,14.737665 4.0509144,14.414055 L4.0509144,2.005155 L6.01517778,4.060695 C6.23436708,4.290045 6.59061811,4.290945 6.81084444,4.062645 C7.0311284,3.834345 7.03190617,3.463335 6.81274568,3.233985 L3.88709136,0.172365 C3.88691852,0.172185 3.88671687,0.172035 3.88654403,0.171825 C3.66663457,-0.057645 3.30923128,-0.056925 3.09004198,0.171855" id="Fill-1"></path>
                </g>
                <g id="Page-1-Copy-20">
                    <path d="M3.09004198,0.171855 C3.08986914,0.172035 3.08966749,0.172185 3.08949465,0.172395 L0.163840329,3.234015 C-0.0553201646,3.463395 -0.0545135802,3.834375 0.165741564,4.062675 C0.385996708,4.290975 0.74221893,4.290075 0.96140823,4.060725 L2.9256716,2.005125 L2.9256716,14.414055 C2.9256716,14.737665 3.17755638,14.999985 3.488293,14.999985 C3.79902963,14.999985 4.0509144,14.737665 4.0509144,14.414055 L4.0509144,2.005155 L6.01517778,4.060695 C6.23436708,4.290045 6.59061811,4.290945 6.81084444,4.062645 C7.0311284,3.834345 7.03190617,3.463335 6.81274568,3.233985 L3.88709136,0.172365 C3.88691852,0.172185 3.88671687,0.172035 3.88654403,0.171825 C3.66663457,-0.057645 3.30923128,-0.056925 3.09004198,0.171855" id="Fill-1"></path>
                </g>
            </g>
        </g>
    </g>
</svg>