<?xml version="1.0" encoding="utf-8"?>
<!-- Generator: Adobe Illustrator 16.0.0, SVG Export Plug-In . SVG Version: 6.00 Build 0)  -->
<!DOCTYPE svg PUBLIC "-//W3C//DTD SVG 1.1//EN" "http://www.w3.org/Graphics/SVG/1.1/DTD/svg11.dtd">
<svg version="1.1" id="Capa_1" xmlns="http://www.w3.org/2000/svg" xmlns:xlink="http://www.w3.org/1999/xlink" x="0px" y="0px"
	 width="24px" height="15.5px" viewBox="0 1.219 24 15.5" enable-background="new 0 1.219 24 15.5" xml:space="preserve">
<path fill="#00A4A6" d="M22.972,8.065h-5.643c-0.457,0-0.828,0.369-0.828,0.823s0.371,0.822,0.828,0.822h5.643
	c0.457,0,0.828-0.369,0.828-0.822S23.429,8.065,22.972,8.065z"/>
<g>
	<path fill="#00A4A6" d="M7.723,1.456C3.563,1.456,0.179,4.84,0.179,9s3.384,7.544,7.544,7.544S15.268,13.16,15.268,9
		C15.264,4.843,11.879,1.459,7.723,1.456z M7.723,15.077c-3.351,0-6.077-2.727-6.077-6.077c0-3.352,2.726-6.079,6.077-6.079
		S13.801,5.648,13.801,9C13.797,12.347,11.07,15.073,7.723,15.077z"/>
	<path fill="#00A4A6" d="M9.171,8.68C8.787,8.409,8.325,8.27,7.918,8.147C7.032,7.879,6.997,7.786,6.997,7.584
		c0-0.269,0.505-0.366,0.845-0.366c0.318,0,0.696,0.101,0.918,0.244l0.21,0.136l0.791-1.225L9.553,6.237
		C9.236,6.031,8.821,5.878,8.389,5.807V5.021H6.927v0.863c-0.864,0.258-1.392,0.896-1.392,1.7c0,0.613,0.265,1.118,0.766,1.459
		c0.368,0.253,0.808,0.385,1.194,0.501c0.879,0.268,0.996,0.379,0.994,0.682c0,0.216-0.414,0.332-0.803,0.332
		c-0.387,0-0.823-0.175-1.06-0.424L6.455,9.953l-1.061,1.004l0.171,0.182c0.342,0.362,0.83,0.641,1.362,0.779v0.838h1.461v-0.812
		c0.955-0.21,1.561-0.866,1.561-1.714C9.955,9.581,9.686,9.045,9.171,8.68z"/>
</g>
</svg>
