<?xml version="1.0" encoding="utf-8"?>
<!-- Generator: Adobe Illustrator 24.0.2, SVG Export Plug-In . SVG Version: 6.00 Build 0)  -->
<svg version="1.1" id="Capa_1" xmlns="http://www.w3.org/2000/svg" xmlns:xlink="http://www.w3.org/1999/xlink" x="0px" y="0px"
	 viewBox="0 0 158 137" style="enable-background:new 0 0 158 137;" xml:space="preserve">
<style type="text/css">
	.st0{opacity:0.5;}
	.st1{fill-rule:evenodd;clip-rule:evenodd;fill:#6B9CF4;}
	.st2{display:none;}
	.st3{display:inline;fill:#FFFFFF;}
	.st4{fill:#FFFFFF;}
</style>
<g id="Group-3" transform="translate(0.000000, 0.063042)" class="st0">
	<path id="Fill-1" class="st1" d="M3.6,66.5c0,0-7.2-25.5-1.1-41.4C8.6,9.3,22.8,3.1,44.9,0.7s58,4.4,77.4,14.3
		c19.5,9.9,27.4,19.3,18.7,45s-32.1,45.8-51,57.2s-38.5,11-54.5,0C19.7,106.2,4.9,77.9,3.6,66.5"/>
</g>
<g id="Group-6" transform="translate(13.270755, 10.696643)" class="st0">
	<path id="Fill-4" class="st1" d="M3.7,66.4c0,0-7.2-25.5-1.1-41.4C8.7,9.3,22.9,3,45,0.6S103,5,122.4,15
		c19.5,9.9,27.4,19.3,18.7,45s-32.1,45.8-51,57.2s-38.5,11-54.5,0C19.8,106.1,4.9,77.8,3.7,66.4"/>
</g>
<g class="st2">
	<path class="st3" d="M58.1,77.9C61.2,85.4,69.7,92.7,81,92c6-0.3,11.1-2.7,15.4-6.9c4.2-4.2,6.5-9.4,6.9-15.4c2.1,0,4.1,0,6.3,0
		c-0.1,1-0.2,2.1-0.3,3.1c-1.7,12.3-11,22.2-23.2,24.9c-14.4,3.1-28.9-4.6-34.2-18.3c-0.2-0.6-0.5-0.8-1.1-0.7
		c-0.7,0.1-1.5,0.3-2.1-0.4c-0.6-0.7-0.2-1.4,0.1-2.1c1.1-2.7,2.3-5.3,3.4-8c0.6-1.5,1.8-1.6,2.8-0.3c1.8,2.4,3.6,4.9,5.5,7.3
		c1,1.3,0.5,2.3-1.1,2.6C59,77.8,58.6,77.8,58.1,77.9z"/>
	<path class="st3" d="M81.6,53.3c0,2.4,0,9.2,0,11.6c0,0.3,0.1,0.5,0.4,0.7c1.6,0.9,2.2,2.8,1.5,4.4c-0.7,1.6-2.4,2.4-4.2,1.9
		c-0.1,0-0.3-0.1-0.5-0.1c-1.1,1.4-2.9,3.6-4.1,5.1c-0.3,0.4-0.8,0.7-1.3,0.7c-0.5,0.1-1-0.1-1.2-0.8c-0.2-0.6,0-1.2,0.4-1.6
		c1-1.2,3.3-4,4.2-5.1c0.2-0.2,0.3-0.5,0.2-0.8c-0.4-1.5,0.3-3,1.6-3.8c0.3-0.2,0.4-0.4,0.4-0.7c0-2.5,0-9.1,0-11.6v0
		C79.4,52.1,81.2,52,81.6,53.3L81.6,53.3z"/>
	<path class="st3" d="M65.8,42c4.1-2.1,8.4-3.2,12.9-3.4c0,2.1,0,4.2,0,6.3c-3.4,0.2-6.7,1-9.8,2.6C67.9,45.7,66.9,43.9,65.8,42z"/>
	<path class="st3" d="M92.7,48.6c1-1.7,2-3.5,3.1-5.4c3.9,2.5,6.9,5.6,9.4,9.5c-1.8,1.1-3.6,2.1-5.4,3.1c-1.1-1.3-2.1-2.6-3.3-3.8
		C95.3,50.8,94,49.8,92.7,48.6z"/>
	<path class="st3" d="M63.9,43.1c1.1,1.8,2.1,3.6,3.1,5.4c-0.5,0.3-1,0.7-1.4,1c-1.9,1.4-3.5,3-4.8,4.8c-0.7,1-1.3,1.1-2.4,0.5
		c-0.9-0.5-1.8-1-2.7-1.6c-0.8-0.5-1-1.3-0.5-2C57.5,48,60.4,45.3,63.9,43.1z"/>
	<path class="st3" d="M81,44.9c0-2.1,0-4.2,0-6.3c4.6,0.2,8.8,1.4,12.9,3.5c-1.1,1.8-2.1,3.6-3.2,5.5C87.6,46,84.4,45.2,81,44.9z"/>
	<path class="st3" d="M109.6,67.5c-2.2,0-4.2,0-6.3,0c-0.2-3.4-1-6.6-2.5-9.6c1.8-1,3.6-2.1,5.5-3.2
		C108.3,58.7,109.4,62.9,109.6,67.5z"/>
	<path class="st3" d="M90.3,54.6c0,1.1-0.9,1.9-1.9,1.9c-1.1,0-1.9-0.9-1.9-1.9c0-1,0.9-1.9,1.9-1.9C89.5,52.7,90.3,53.6,90.3,54.6z
		"/>
	<path class="st3" d="M92.5,60.5c0-1,0.9-1.9,1.9-1.9c1,0,1.9,0.9,1.9,1.9c0,1-0.9,1.9-1.9,1.9C93.3,62.4,92.5,61.6,92.5,60.5z"/>
	<path class="st3" d="M96.5,70.5c-1,0-1.9-0.8-1.9-1.9c0-1,0.8-1.9,1.9-1.9c1.1,0,1.9,0.8,1.9,1.9C98.4,69.7,97.6,70.5,96.5,70.5z"
		/>
	<path class="st3" d="M96.2,76.7c0,1-0.8,1.9-1.9,1.9c-1,0-1.9-0.8-1.9-1.9c0-1.1,0.8-1.9,1.9-1.9C95.4,74.8,96.2,75.7,96.2,76.7z"
		/>
	<path class="st3" d="M90.3,82.7c0,1-0.9,1.9-1.9,1.9c-1,0-1.9-0.9-1.9-1.9c0-1,0.9-1.9,1.9-1.9C89.5,80.8,90.3,81.6,90.3,82.7z"/>
	<path class="st3" d="M74.1,82.7c0,1-0.9,1.9-1.9,1.9c-1,0-1.9-0.8-1.9-1.9c0-1,0.8-1.9,1.9-1.9C73.3,80.8,74.1,81.6,74.1,82.7z"/>
	<path class="st3" d="M80.3,86.7c-1,0-1.9-0.9-1.9-1.9c0-1,0.9-1.9,1.9-1.8c1,0,1.9,0.9,1.9,1.9C82.2,85.9,81.3,86.7,80.3,86.7z"/>
</g>
<g>
	<g>
		<path class="st4" d="M92.5,44.1c1.4,0.3,2.6,1,3.5,2.2c0.7,1,1.1,2.1,1.2,3.3c0,0.7,0,1.5,0,2.2c0.2,2.4-0.7,4.4-2.1,6.3
			c-1.5,2.1-3.4,3.9-5.3,5.6c-1.1,1-2.2,1.9-3.3,2.8c-1.1,0.9-1.1,2.1,0,3.1c2.2,1.9,4.5,3.7,6.5,5.8c0.2,0.2,0.5,0.5,0.7,0.8
			c0.7,0.8,0.7,2-0.1,2.7c-0.8,0.7-1.9,0.7-2.6,0c-2.2-2.4-4.7-4.4-7.2-6.5c-2.6-2.3-2.6-6.2,0-8.5c2.2-1.9,4.5-3.7,6.5-5.8
			c0.9-1,1.8-2,2.5-3.2c0.4-0.7,0.6-1.4,0.7-2.1c0-1,0.1-2,0-3c-0.1-1.1-0.8-1.7-1.9-1.8c-0.1,0-0.3,0-0.4,0c-8.1,0-16.1,0-24.2,0
			c-0.2,0-0.4,0-0.6,0c-1.1,0.2-1.6,0.7-1.7,1.7c-0.1,1-0.1,2.1,0,3.1c0.1,1.5,1,2.7,1.9,3.8c1.9,2.3,4.2,4.2,6.5,6.2
			c0.7,0.6,1.4,1.1,1.9,1.8c1.9,2.3,1.6,5.8-0.7,7.8c-2.2,1.9-4.5,3.7-6.5,5.8c-0.9,1-1.8,2-2.5,3.2c-0.4,0.7-0.6,1.3-0.6,2.1
			c0,1-0.1,2,0,2.9c0.1,1.1,0.7,1.7,1.9,1.8c0.1,0,0.2,0,0.3,0c8.1,0,16.3,0,24.4,0c0.5,0,1-0.1,1.4-0.3c0.6-0.4,0.7-1,0.8-1.6
			c0.1-1.1,0.9-1.8,2-1.8c1,0,1.7,0.9,1.7,1.9c0,3-2.5,5.6-5.5,5.6c-8.5,0-17,0-25.5,0c-3,0-5.5-2.5-5.5-5.5c0-0.7,0-1.5,0-2.2
			c-0.2-2.4,0.7-4.4,2.1-6.3c1.5-2.1,3.4-3.9,5.4-5.6c1.1-1,2.2-1.9,3.3-2.8c1-0.9,1-2.1,0-3c-1.8-1.6-3.7-3.1-5.4-4.8
			c-1.7-1.6-3.2-3.3-4.3-5.4c-0.7-1.3-1.1-2.6-1-4.1c0-1.1-0.1-2.3,0.1-3.4c0.4-2.5,1.9-4,4.4-4.6c0.1,0,0.2-0.1,0.3-0.1
			C74.5,44.1,83.5,44.1,92.5,44.1z"/>
		<path class="st4" d="M79,84.1c-2.5,0-5.1,0-7.6,0c-1.2,0-2-1.1-1.5-2.2c0.1-0.3,0.3-0.5,0.5-0.8c2.1-2.1,4.4-4,6.7-5.9
			c1.2-1,2.7-1,3.9,0c2.3,1.9,4.5,3.8,6.7,5.9c0.6,0.5,0.8,1.2,0.5,1.9c-0.3,0.7-0.8,1-1.7,1C84,84.2,81.5,84.2,79,84.1
			C79,84.1,79,84.1,79,84.1z"/>
		<path class="st4" d="M79.1,55.9c1.2,0,2.4,0,3.5,0c0.8,0,1.3,0.3,1.6,1c0.3,0.7,0.2,1.4-0.3,1.9c-1,1-2.1,2-3.3,2.8
			c-1.1,0.7-2.4,0.6-3.5-0.2c-1-0.8-1.9-1.6-2.8-2.4c-0.6-0.6-0.8-1.3-0.5-2c0.3-0.7,0.9-1.1,1.7-1.1C76.8,55.9,77.9,55.9,79.1,55.9
			z"/>
	</g>
</g>
</svg>
