<?xml version="1.0" encoding="UTF-8"?>
<svg width="158px" height="137px" viewBox="0 0 158 137" version="1.1" xmlns="http://www.w3.org/2000/svg" xmlns:xlink="http://www.w3.org/1999/xlink">
    <!-- Generator: Sketch 3.6 (26304) - http://www.bohemiancoding.com/sketch -->
    <title>Page 1</title>
    <desc>Created with Sketch.</desc>
    <defs>
        <path id="path-1" d="M144.552711,0.190138907 L6.11300929e-05,0.190138907 L6.1130093e-05,125.613277 L144.552711,125.613277 L144.552711,0.190138907 L144.552711,0.190138907 Z"></path>
    </defs>
    <g id="Page-1" stroke="none" stroke-width="1" fill="none" fill-rule="evenodd">
        <g id="Perfil-Copy-17" transform="translate(-697.000000, -537.000000)">
            <g id="Page-1" transform="translate(697.000000, 537.000000)">
                <g id="Group-3" opacity="0.5" transform="translate(0.000000, 0.063042)">
                    <mask id="mask-2" fill="white">
                        <use xlink:href="#path-1"></use>
                    </mask>
                    <g id="Clip-2"></g>
                    <path d="M3.56804674,66.4729924 C3.56804674,66.4729924 -3.65762434,40.9239945 2.45636577,25.1166408 C8.57061109,9.30928699 22.8366731,3.05976796 44.884757,0.670245978 C66.932841,-1.719276 102.876427,5.08167117 122.330588,15.0071247 C141.78475,24.9328314 149.751542,34.3068567 141.043629,60.0399172 C132.335717,85.7727245 108.990672,105.807441 90.0923507,117.203623 C71.1940295,128.599551 51.5548428,128.231932 35.6210042,117.203623 C19.6871655,106.17506 4.86500787,77.868921 3.56804674,66.4729924" id="Fill-1" fill="#13C6A4" mask="url(#mask-2)"></path>
                </g>
                <g id="Group-6" opacity="0.5" transform="translate(13.270755, 10.696643)" fill="#13C6A4">
                    <path d="M3.6509124,66.4374965 C3.6509124,66.4374965 -3.57475868,40.8884986 2.53923143,25.0811448 C8.65347674,9.27379102 22.9195387,3.02427199 44.9676227,0.634750006 C67.0157066,-1.75477197 102.959292,5.0461752 122.413454,14.9716287 C141.867616,24.8973354 149.834407,34.2713608 141.126495,60.0044212 C132.418583,85.7372285 109.073538,105.772198 90.1752164,117.168127 C71.2768951,128.564055 51.6377085,128.196436 35.7038698,117.168127 C19.7700312,106.139564 4.94787352,77.833425 3.6509124,66.4374965" id="Fill-4"></path>
                </g>
                <path d="M63.9120782,76.7598393 L101.529486,31.8439523 C101.529486,31.8439523 103.506166,29.29105 106.011075,30.845579 C107.175661,31.5679956 108.019726,33.3124215 106.707912,35.0469486 C105.396302,36.7814756 69.9050426,91.7309936 69.9050426,91.7309936 C69.9050426,91.7309936 65.1585252,99.0088961 59.0360493,92.4996723 C52.9103152,85.9904484 40.0709541,70.2506154 40.0709541,70.2506154 C40.0709541,70.2506154 37.3377713,66.1215683 41.0286473,62.6466557 C44.1882407,59.6717378 48.62279,61.6254544 50.3520545,63.4276575 C52.0002724,65.1438009 63.9120782,76.7598393 63.9120782,76.7598393" id="Fill-7" fill="#FFFFFF"></path>
            </g>
        </g>
    </g>
</svg>