<svg id="Capa_1" data-name="Capa 1" xmlns="http://www.w3.org/2000/svg" viewBox="0 0 500 500"><path d="M375.72,189c-.16,19.55-5.79,37.73-13.67,55.29-13,29-30.77,55-50.19,79.91-11,14.11-22.51,27.81-34.14,41.41-5.84,6.83-12.66,12.29-22.73,11.32-7.59-.74-12.88-5.24-17.42-10.42-29.77-34-57.42-69.5-79-109.34-4.84-8.91-9.45-18.12-12.68-27.69-10.68-31.69-8.76-63,8-92,25.39-43.93,64.31-64.45,115-60.8,50,3.61,92.79,41,104.12,89.36a77.41,77.41,0,0,1,1.61,8.91C375.08,179.59,375.35,184.28,375.72,189Zm-118,58.86A53.71,53.71,0,0,0,258,140.4c-30.22-.07-54,23.58-54,53.73A53.23,53.23,0,0,0,257.7,247.82Z"/></svg>