<svg id="Capa_1" data-name="Capa 1" xmlns="http://www.w3.org/2000/svg" viewBox="0 0 500 500"><path d="M176.35,194.18h2.45c7.6,0,15.19-.05,22.78,0,4.35,0,7.34,3,7.32,7s-3.05,6.91-7.42,6.92q-20.49,0-41,0c-4.54,0-7.5-2.81-7.52-7.32q-.09-20.61,0-41.21c0-4.3,3.09-7.42,7-7.41s7,3.23,7,7.67c0,6.83,0,13.66,0,20.49v2.47c3.43-2.82,6.47-5.52,9.72-8,23.66-17.68,50.24-25.07,79.59-21.89a111.86,111.86,0,0,1,10.27,220.75c-60.65,12.65-120.72-27.3-132.38-88.22A172.29,172.29,0,0,1,132,265.21c-.32-4.72,2.64-7.91,6.77-8,4.33-.09,7,3,7.23,7.84,1.8,41.46,21.39,71.49,59,88.76,42.75,19.6,94.93,3.67,120.58-35.76a98,98,0,0,0,16.15-58.42c-1.51-41-30.49-78.23-70.24-89.29-35.06-9.77-66.42-2.26-93.79,21.79-.56.49-1.17.92-1.76,1.38Z"/><path d="M306.86,267.65q0,15.24,0,30.49c0,4.36-1.37,6.35-5.47,7.89-17.87,6.71-35.76,13.37-53.62,20.12a10.26,10.26,0,0,1-7.7,0Q213.27,316,186.44,306c-3.95-1.48-5.43-3.53-5.43-7.69q0-30.72,0-61.44c0-4,1.45-6.1,5.29-7.54q27.1-10.18,54.23-20.37a9.21,9.21,0,0,1,6.83,0q27,10.19,54,20.25c4.07,1.53,5.45,3.57,5.45,7.91Q306.88,252.4,306.86,267.65ZM236.8,309.89c.07-.81.16-1.32.16-1.82,0-14.78,0-29.57,0-44.35,0-1.44-.59-1.94-1.8-2.39-7.68-2.82-15.32-5.72-23-8.59l-17.1-6.41a12.8,12.8,0,0,0-.16,1.34c0,15,0,30-.05,45,0,1.55.87,1.89,2,2.3l31.7,11.86C231.24,307.87,233.92,308.83,236.8,309.89Zm14.09-.06a14.53,14.53,0,0,0,1.5-.38c13-4.86,25.93-9.76,38.93-14.55,1.54-.57,1.61-1.48,1.6-2.77q0-21.72,0-43.44c0-.72-.08-1.44-.13-2.26-.75.22-1.26.35-1.74.53-12.69,4.76-25.36,9.56-38.08,14.25a2.73,2.73,0,0,0-2.1,3.1c.07,14.33,0,28.66,0,43Zm28.84-73.56a9.88,9.88,0,0,0-1-.54c-11.19-4.2-22.38-8.42-33.6-12.55a4.39,4.39,0,0,0-2.77.1c-4.49,1.59-9,3.3-13.41,5l-20.8,7.82a10.85,10.85,0,0,0,1.22.66c11.13,4.17,22.25,8.35,33.4,12.46a4.12,4.12,0,0,0,2.57-.1c4.77-1.71,9.51-3.53,14.26-5.3Z"/></svg>