<svg id="Capa_1" data-name="Capa 1" xmlns="http://www.w3.org/2000/svg" viewBox="0 0 167 211"><defs><style>.cls-1{fill:#666;}</style></defs><path class="cls-1" d="M48.45,87.7h64.09c0,.86,0,1.7,0,2.52Q112,102.63,111.36,115c-.42,8.79-.82,17.58-1.28,26.37a8.19,8.19,0,0,1-8.14,7.6c-4.12,0-8.24,0-12.36,0H59.9c-5.4,0-8.76-3.1-9-8.46-.52-10.13-1-20.25-1.45-30.38q-.48-10-1-20C48.42,89.35,48.45,88.58,48.45,87.7Zm15.07,30.56h0l0,.63q.44,9.23.87,18.46a1.73,1.73,0,0,0,1.72,1.87,1.79,1.79,0,0,0,1.65-2c0-.42,0-.84,0-1.26l-1-20.89c-.25-5.28-.5-10.55-.78-15.83-.06-1.23-.81-1.94-1.83-1.85a1.77,1.77,0,0,0-1.53,2Q63.05,108.87,63.52,118.26Zm34,.08h0q.45-9.37.89-18.76c.06-1.23-.53-2-1.54-2.13s-1.74.61-1.82,1.86c-.14,2.25-.24,4.5-.34,6.74l-1.35,29c0,.84-.14,1.69-.11,2.53a1.66,1.66,0,0,0,1.64,1.61,1.7,1.7,0,0,0,1.71-1.55c0-.21,0-.42,0-.63Zm-15.3,0V100c0-.32,0-.64,0-.95a1.68,1.68,0,0,0-3.35,0,5.89,5.89,0,0,0,0,.84v37a5.91,5.91,0,0,0,0,.94,1.67,1.67,0,0,0,1.7,1.44,1.64,1.64,0,0,0,1.61-1.41,5.22,5.22,0,0,0,0-1.05Z"/><path class="cls-1" d="M80.61,65.94h31.58c3.79,0,5.72,1.93,5.73,5.7q0,3.64,0,7.29c0,3.29-2.09,5.34-5.46,5.34H77.7c-9.61,0-19.22-.07-28.83,0-3.6,0-6-2.38-5.81-5.81.14-2.42,0-4.85,0-7.28a5,5,0,0,1,5.3-5.28Z"/><path class="cls-1" d="M94.57,62.51H91.26c0-.49,0-.94,0-1.39a3.37,3.37,0,0,0-3.43-3.41q-7.33,0-14.68,0A3.36,3.36,0,0,0,69.74,61c0,.46,0,.92,0,1.53H66.5a6.76,6.76,0,0,1,6.29-8.19q7.75-.19,15.52,0C92.32,54.46,95,58,94.57,62.51Z"/></svg>