<?xml version="1.0" encoding="UTF-8"?><svg id="Capa_1" xmlns="http://www.w3.org/2000/svg" viewBox="0 0 500 500"><defs><style>.cls-1{fill:#57c668;}</style></defs><path class="cls-1" d="M.42,499.35c5.96-17.73,11.39-33.94,16.88-50.14,8.42-24.84,17.01-49.62,25.17-74.54,.92-2.81,.49-6.87-.9-9.52C-7.8,271.07-2.87,180.1,60.84,94.98,103.5,37.99,162.82,7.29,233.93,1.58c76.22-6.13,142.19,18.19,195.97,72.39,96.63,97.39,92.01,256.12-9.24,348.53-76.34,69.68-187.65,84.47-279.47,37-4.06-2.1-7.49-2.34-11.77-.96-40.2,12.96-80.46,25.73-120.72,38.54-2.17,.69-4.39,1.21-8.29,2.27Zm60.75-59.14c25.79-8.2,49.91-15.76,73.92-23.63,4.19-1.37,7.24-.8,10.92,1.48,27.71,17.18,57.89,27.42,90.38,29.91,58.42,4.48,110.72-11.67,154.38-50.87,58.02-52.1,81.37-117.83,65.66-194.25C433.54,91.57,327.73,22.1,216.15,42.32,75.62,67.79,3.19,226.6,77.26,348.25c7.46,12.26,8.93,21.83,3.6,34.79-7.46,18.13-12.9,37.09-19.7,57.17Z"/><path class="cls-1" d="M134.73,188.64c.35-17.02,6.22-31.58,17.26-44.55,8.86-10.4,20.58-12.16,32.72-11.99,3.39,.05,8.24,3.99,9.81,7.36,7.62,16.39,14.57,33.12,21.2,49.94,1.09,2.77,.5,7.28-1.12,9.84-4.31,6.8-9.29,13.25-14.6,19.32-3.84,4.39-4.3,8.28-1.35,13.16,19.78,32.68,47.04,56.49,82.74,70.48,5,1.96,8.97,1.29,12.38-2.92,5.84-7.22,12.08-14.14,17.54-21.63,3.6-4.93,7.58-6.79,13.06-4.25,16.83,7.8,33.7,15.53,50.21,23.95,2.36,1.2,4.05,6.09,4.01,9.25-.32,27.01-14.5,41.53-43.87,49.68-13.06,3.62-25.57,.83-38.32-2.54-58.07-15.35-101.65-50.06-135.01-99.09-11.18-16.43-21.76-32.93-25.28-52.89-.76-4.32-.94-8.75-1.38-13.12Z"/></svg>