<?xml version="1.0" encoding="UTF-8"?><svg id="Capa_1" xmlns="http://www.w3.org/2000/svg" viewBox="0 0 427.18 405.84"><path d="M412.47,.13c-53.91,57.98-106.75,114.82-160.05,172.15,58.1,77.5,116.12,154.89,174.77,233.11-2.29,.14-3.81,.32-5.33,.32-38.52,.01-77.04-.04-115.56,.09-3.44,.01-5.42-1.23-7.38-3.87-37.13-50.04-74.34-100.02-111.55-150-1.18-1.58-2.43-3.12-4.04-5.18-1.6,1.68-2.93,3.07-4.24,4.47-46.53,50.05-93.09,100.09-139.54,150.21-2.96,3.2-6.02,4.55-10.39,4.4-9.23-.31-18.48-.1-29.15-.1,56.53-60.66,112.04-120.23,167.8-180.06C112.03,150.75,56.38,75.97,.2,.48,2.64,.32,4.21,.14,5.77,.13c37.35-.01,74.71,.07,112.06-.11,4.18-.02,6.6,1.43,9.01,4.65,35.9,48.06,71.91,96.02,107.9,144.01,.58,.78,1.25,1.49,2.2,2.61,4.27-4.47,8.4-8.72,12.44-13.06,41.46-44.53,82.92-89.05,124.3-133.64,2.89-3.12,5.81-4.78,10.29-4.58,8.97,.39,17.96,.12,28.5,.12ZM53.4,26.28c1.17,1.82,1.73,2.79,2.39,3.68,6.68,8.94,13.37,17.87,20.09,26.79,42.07,55.89,84.17,111.75,126.22,167.67,37.44,49.79,74.84,99.6,112.15,149.48,2.13,2.84,4.32,3.98,7.87,3.94,15.83-.18,31.67-.07,47.51-.09,1.52,0,3.04-.2,5.11-.34-1.11-1.67-1.7-2.66-2.39-3.58-58.26-77.89-116.54-155.76-174.8-233.65-27.34-36.55-54.64-73.13-82.06-109.62-1.35-1.8-3.66-4.06-5.55-4.09-18.49-.31-36.98-.18-56.53-.18Z"/></svg>