<?xml version="1.0" encoding="utf-8"?>
<!-- Generator: Adobe Illustrator 16.0.0, SVG Export Plug-In . SVG Version: 6.00 Build 0)  -->
<!DOCTYPE svg PUBLIC "-//W3C//DTD SVG 1.1//EN" "http://www.w3.org/Graphics/SVG/1.1/DTD/svg11.dtd">
<svg version="1.1" id="Capa_1" xmlns="http://www.w3.org/2000/svg" xmlns:xlink="http://www.w3.org/1999/xlink" x="0px" y="0px"
	 width="159.653px" height="137.241px" viewBox="0 0 159.653 137.241" enable-background="new 0 0 159.653 137.241"
	 xml:space="preserve">
<g id="Page-1_3_" transform="translate(687.000000, 529.000000)">
	<g id="Group-3_1_" transform="translate(0.000000, 0.063042)" opacity="0.5">
		<g id="Clip-2_1_">
		</g>
		<defs>
			<filter id="Adobe_OpacityMaskFilter" filterUnits="userSpaceOnUse" x="-686.093" y="-528.545" width="144.553" height="125.423">
				<feColorMatrix  type="matrix" values="1 0 0 0 0  0 1 0 0 0  0 0 1 0 0  0 0 0 1 0"/>
			</filter>
		</defs>
		<mask maskUnits="userSpaceOnUse" x="-686.093" y="-528.545" width="144.553" height="125.423" id="mask-2_2_">
			<g filter="url(#Adobe_OpacityMaskFilter)">
				<path id="path-1_2_" fill="#FFFFFF" d="M-541.54-528.545h-144.553v125.423h144.553V-528.545L-541.54-528.545z"/>
			</g>
		</mask>
		<path id="Fill-1_1_" mask="url(#mask-2_2_)" fill="#BC0005" d="M-682.524-462.262c0,0-7.227-25.549-1.111-41.356
			c6.113-15.808,20.38-22.057,42.428-24.446s57.992,4.411,77.445,14.337c19.455,9.926,27.422,19.3,18.713,45.033
			c-8.707,25.733-32.053,45.768-50.951,57.164s-38.537,11.028-54.471,0S-681.228-450.866-682.524-462.262"/>
	</g>
	<g id="Group-6_1_" transform="translate(13.270755, 10.696643)" opacity="0.5">
		<path id="Fill-4_1_" fill="#BC0005" d="M-682.442-462.297c0,0-7.227-25.55-1.111-41.357c6.113-15.807,20.38-22.057,42.428-24.446
			c22.049-2.39,57.992,4.411,77.445,14.337c19.455,9.925,27.422,19.299,18.714,45.033c-8.708,25.732-32.054,45.768-50.952,57.164
			c-18.897,11.396-38.537,11.027-54.471,0C-666.323-422.596-681.145-450.901-682.442-462.297"/>
	</g>
</g>
<path fill="#FFFFFF" d="M81.041,65.014L94.06,51.997c0.682-0.682,1.057-1.587,1.057-2.551c0-0.963-0.375-1.868-1.056-2.547
	c-0.681-0.682-1.586-1.057-2.549-1.057s-1.868,0.375-2.549,1.056l-13.02,13.019L62.926,46.898c-0.682-0.681-1.586-1.056-2.549-1.056
	s-1.868,0.375-2.548,1.056c-1.406,1.404-1.408,3.691-0.002,5.098l13.019,13.019L58.073,77.789c-0.681,0.68-1.056,1.586-1.056,2.549
	s0.376,1.869,1.055,2.547c0.681,0.682,1.586,1.057,2.55,1.057c0.963,0,1.868-0.375,2.549-1.057l12.772-12.771l12.772,12.771
	c0.682,0.682,1.587,1.057,2.55,1.057s1.868-0.375,2.55-1.057c1.403-1.404,1.404-3.689,0-5.096L81.041,65.014z"/>
</svg>
