<?xml version="1.0" encoding="utf-8"?>
<!-- Generator: Adobe Illustrator 24.0.2, SVG Export Plug-In . SVG Version: 6.00 Build 0)  -->
<svg version="1.1" id="Capa_1" xmlns="http://www.w3.org/2000/svg" xmlns:xlink="http://www.w3.org/1999/xlink" x="0px" y="0px"
	 viewBox="0 0 158 137" style="enable-background:new 0 0 158 137;" xml:space="preserve">
<style type="text/css">
	.st0{opacity:0.5;}
	.st1{filter:url(#Adobe_OpacityMaskFilter);}
	.st2{fill-rule:evenodd;clip-rule:evenodd;fill:#FFFFFF;}
	.st3{mask:url(#mask-2_1_);fill-rule:evenodd;clip-rule:evenodd;fill:#FFE566;}
	.st4{fill-rule:evenodd;clip-rule:evenodd;fill:#FFE566;}
	.st5{fill:#FFFFFF;}
</style>
<title>Page 1</title>
<desc>Created with Sketch.</desc>
<g id="Group-3" transform="translate(0.000000, 0.063042)" class="st0">
	<g id="Clip-2">
	</g>
	<defs>
		<filter id="Adobe_OpacityMaskFilter" filterUnits="userSpaceOnUse" x="3" y="2.2" width="141" height="122.3">
			<feColorMatrix  type="matrix" values="1 0 0 0 0  0 1 0 0 0  0 0 1 0 0  0 0 0 1 0"/>
		</filter>
	</defs>
	<mask maskUnits="userSpaceOnUse" x="3" y="2.2" width="141" height="122.3" id="mask-2_1_">
		<g class="st1">
			<path id="path-1_1_" class="st2" d="M144,2.2H3v122.3h141V2.2L144,2.2z"/>
		</g>
	</mask>
	<path id="Fill-1" class="st3" d="M6.5,66.8c0,0-7-24.9-1.1-40.3C11.4,11.1,25.3,5,46.8,2.7s56.5,4.3,75.5,14
		c19,9.7,26.7,18.8,18.2,43.9c-8.5,25.1-31.3,44.6-49.7,55.7c-18.4,11.1-37.6,10.8-53.1,0C22.2,105.5,7.7,77.9,6.5,66.8"/>
</g>
<g id="Group-6" transform="translate(13.270755, 10.696643)" class="st0">
	<path id="Fill-4" class="st4" d="M6.2,66.5c0,0-7-24.9-1.1-40.3C11.1,10.8,25,4.7,46.5,2.4s56.5,4.3,75.5,14
		c19,9.7,26.7,18.8,18.2,43.9c-8.5,25.1-31.3,44.6-49.7,55.7s-37.6,10.8-53.1,0C21.9,105.2,7.5,77.6,6.2,66.5"/>
</g>
<g>
	<path class="st5" d="M68.4,102.3c0-4.6,3.2-8,7.6-8c4.6,0,7.6,3.3,7.6,8c0,4.5-3,8-7.6,8C71.5,110.3,68.4,106.8,68.4,102.3z
		 M71.6,84l-1.8-61.6h12.3L80.4,84H71.6z"/>
</g>
</svg>
