<?xml version="1.0" encoding="UTF-8"?><svg id="Capa_1" xmlns="http://www.w3.org/2000/svg" viewBox="0 0 500 500"><defs><style>.cls-1{fill:#496ab1;}</style></defs><path class="cls-1" d="M280.19,498.18c0-5.05,0-9.62,0-14.19,0-57.85-.02-115.7,0-173.55,0-7.39,.08-7.39,7.56-7.39,15.02,.02,30.03,.04,45.05,.06,2.19,0,4.38,0,7.2,0,3.06-23.29,6.06-46.17,9.13-69.56h-68.16c-.33-1.31-.76-2.25-.76-3.18,.01-15.02-.22-30.04,.21-45.05,.58-20.15,9.76-29.27,29.79-29.9,11.59-.37,23.2-.25,34.8-.35,1.84-.02,3.69,0,5.94,0,.19-1.94,.46-3.4,.46-4.85,.03-17.58-.02-35.16,.05-52.73,.01-2.87-.21-4.99-3.88-5.05-21.63-.39-43.38-2.52-64.87-.97-39.26,2.84-68.81,32.48-72.51,71.83-1.91,20.32-1.27,40.88-1.76,61.33-.06,2.7,0,5.4,0,8.68h-59.48c-.19,2.01-.45,3.47-.45,4.93-.02,19.8,.16,39.59-.11,59.39-.06,4.75,1.63,5.62,5.9,5.57,16.21-.22,32.42-.08,48.63-.08,1.66,0,3.31,0,5.19,0v192.98C110.2,482.38,6.09,392.93,1.37,260.06-3.56,121.61,103.54,8.03,238.7,2.07c136.51-6.02,247.12,96.64,258.98,225.17,13.19,143-92.22,256.5-217.49,270.94Z"/></svg>