<?xml version="1.0" encoding="UTF-8"?><svg id="Capa_1" xmlns="http://www.w3.org/2000/svg" viewBox="0 0 500 500"><defs><style>.cls-1{fill:#1d9bf0;}</style></defs><path class="cls-1" d="M0,407.79c62.42,6.86,117.13-15.38,150.84-42.92-28.03-1.24-51.99-11.5-71.57-31.51-11.07-11.31-18.93-24.6-23.93-39.91,15.57,2.79,30.72,2.36,46.18-1.76-27.36-6.21-48.91-20.35-64.53-43.18-12.04-17.61-17.73-37.22-17.76-58.88,14.45,7.8,29.59,12.2,45.84,12.59-25.36-18.29-40.47-42.73-44.19-73.79-2.67-22.33,1.92-43.32,13.04-62.89,.81,.19,1.06,.78,1.44,1.23,34.46,41.44,77.03,71.29,127.78,89.44,16.36,5.85,33.12,10.11,50.27,12.91,10.2,1.67,20.46,2.78,30.77,3.39,1.68,.1,1.76,.04,1.4-1.62-1.75-8.02-2.53-16.13-2.26-24.33,.68-21.02,7-40.2,19.34-57.24,14.96-20.65,34.95-33.99,59.71-40.06,11.04-2.7,22.27-3.39,33.58-2.27,24.95,2.48,46.2,12.73,63.8,30.54,1.04,1.06,1.97,1.23,3.37,.94,21.7-4.53,42.12-12.37,61.32-23.43,.45-.26,.85-.67,1.71-.59-3.82,11.72-9.56,22.3-17.15,31.9-7.61,9.62-16.69,17.59-27.07,24.16,20.02-2.28,39.19-7.57,58.06-15.82-.6,.97-.91,1.52-1.27,2.03-13.18,19.22-29.15,35.76-47.86,49.65-.27,.2-.52,.44-.81,.6-.85,.48-1.13,1.14-1.08,2.16,.34,6.55,.3,13.1,.12,19.65-.34,12.3-1.53,24.51-3.47,36.66-3.73,23.43-10.14,46.1-19.22,68.01-18.34,44.22-45.2,82.34-81.71,113.46-30.86,26.3-65.95,44.74-104.99,55.65-13.33,3.72-26.88,6.43-40.61,8.23-13.34,1.75-26.73,2.71-40.18,2.72-10.47,.01-20.92-.48-31.34-1.51-34.03-3.38-66.43-12.52-97.25-27.27-9.86-4.72-19.42-10.01-28.68-15.82-.56-.35-1.09-.74-1.63-1.11Z"/></svg>