<?xml version="1.0" encoding="utf-8"?>
<!-- Generator: Adobe Illustrator 24.0.2, SVG Export Plug-In . SVG Version: 6.00 Build 0)  -->
<svg version="1.1" id="Capa_1" xmlns="http://www.w3.org/2000/svg" xmlns:xlink="http://www.w3.org/1999/xlink" x="0px" y="0px"
	 viewBox="0 0 158 137" style="enable-background:new 0 0 158 137;" xml:space="preserve">
<style type="text/css">
	.st0{opacity:0.5;}
	.st1{fill-rule:evenodd;clip-rule:evenodd;fill:#6B9CF4;}
	.st2{fill:#FFFFFF;}
</style>
<title>Page 1</title>
<desc>Created with Sketch.</desc>
<g id="Group-3_1_" transform="translate(0.000000, 0.063042)" class="st0">
	<g id="Clip-2_1_">
	</g>
	<path id="Fill-1_1_" class="st1" d="M4.5,66.9c0,0-7.1-25.2-1.1-41c6-15.6,20.1-21.8,42-24.2s57.4,4.4,76.6,14.2
		c19.3,9.8,27.1,19.1,18.5,44.5c-8.6,25.4-31.8,45.3-50.5,56.6s-38.1,10.9-54,0C20.5,106.2,5.8,78.2,4.5,66.9"/>
</g>
<g id="Group-6_1_" transform="translate(13.270755, 10.696643)" class="st0">
	<path id="Fill-4_1_" class="st1" d="M4.5,66.7c0,0-7.1-25.2-1.1-41c6-15.5,20.1-21.8,42-24.2s57.4,4.4,76.6,14.3
		c19.3,9.8,27.1,19.1,18.5,44.5S108.7,105.7,90,117s-38.1,10.9-54,0C20.4,106,5.7,78,4.5,66.7"/>
</g>
<g>
	<path class="st2" d="M68.3,100.7c0-4.6,3.2-7.9,7.5-7.9c4.6,0,7.5,3.3,7.5,7.9c0,4.5-3,7.9-7.5,7.9
		C71.3,108.7,68.3,105.2,68.3,100.7z M71.4,82.6l-1.8-61h12.2l-1.7,61H71.4z"/>
</g>
</svg>
