<svg id="Capa_1" data-name="Capa 1" xmlns="http://www.w3.org/2000/svg" viewBox="0 0 500 500"><path d="M263.49,112c3.57.86,7.23,1.46,10.7,2.62a48.57,48.57,0,0,1,33.05,45c.07,3.08,0,6.16,0,9.6h36.17c6,0,8.77,2.29,9.41,8.18,1.91,17.49,3.71,35,5.56,52.51q2.72,25.74,5.43,51.49t5.37,51.23c1.14,10.85,2.26,21.69,3.46,32.53.63,5.67-1.14,9.25-5.51,10.48a12.26,12.26,0,0,1-3.31.35H153.5c-6.53,0-9.67-3.73-9-10.24,2.07-19.12,4-38.25,6.05-57.38q3.25-30.74,6.5-61.48,3-28.17,5.88-56.36c.47-4.53,1-9,1.47-13.57.54-5,3.52-7.73,8.54-7.74,11.51,0,23,0,34.54,0H210v-7.74a47.76,47.76,0,0,1,5.34-22.84c7.93-14.86,20.22-23.66,36.94-26.19a10.88,10.88,0,0,0,1.44-.45Zm-84.12,73Q170.18,272.63,161,360.08H356.15a7.72,7.72,0,0,0,0-1q-3.75-35.49-7.51-71-5.28-50.34-10.47-100.69c-.19-1.82-.64-2.67-2.76-2.64-8.59.13-17.18.05-25.77.06-.75,0-1.5.1-2.31.15,0,.89-.09,1.57-.09,2.25,0,5,.07,10,0,14.95a7.86,7.86,0,0,1-15.7.41c-.12-1.28-.05-2.58-.05-3.86,0-4.54,0-9.07,0-13.68H225.77v3c0,4.64.08,9.28,0,13.92a7.8,7.8,0,0,1-7.73,8c-4.45.05-7.82-3.28-8-8-.06-1.46,0-2.92,0-4.38V185Zm112.11-15.87c0-3,0-5.86,0-8.68-.32-17.9-13.64-31.84-31.54-32.66-19.59-.9-38,15.83-33.75,41.34Z"/></svg>