<svg id="Capa_1" data-name="Capa 1" xmlns="http://www.w3.org/2000/svg" viewBox="0 0 50 50"><defs><style>.cls-1{fill:transparent;}</style></defs><path d="M6,23.11v-.59a1.42,1.42,0,0,1,1.49-.83c2.08,0,4.16,0,6.24,0A1.15,1.15,0,0,0,14.89,21a1,1,0,0,0-1.07-1.39H8.37a1.12,1.12,0,1,1,0-2.22H9.56V15.09a1.15,1.15,0,0,1,1.31-1.32h20v6.46a1.15,1.15,0,0,0,1.31,1.32h8.09A3.59,3.59,0,0,1,44,24.39s0,0,0,.05V32a1.37,1.37,0,0,1-1.5.82c-.51,0-1,0-1.52,0-.84,2.25-2.17,3.36-4.08,3.41a4.3,4.3,0,0,1-4.32-3.38H21.3c-.81,2.2-2.15,3.32-4,3.38a4.3,4.3,0,0,1-4.37-3.41H10.7a1.11,1.11,0,0,1-1.12-.94,2.68,2.68,0,0,1,0-.4v-3.1c-.71,0-1.39,0-2.06,0A1.39,1.39,0,0,1,6,27.55V27a1.41,1.41,0,0,1,1.49-.82c3.17,0,6.33,0,9.5,0a1.14,1.14,0,0,0,1.15-.65A1.11,1.11,0,0,0,17,23.92c-3.18,0-6.36,0-9.54,0A1.41,1.41,0,0,1,6,23.11Zm11.12,6.81a2,2,0,1,0,2,2A2,2,0,0,0,17.12,29.92Zm17.6,2a2,2,0,1,0,2.06-2A2,2,0,0,0,34.72,32Z"/><path class="cls-1" d="M6,27.55a1.39,1.39,0,0,0,1.5.83c.67,0,1.35,0,2.06,0v3.1a2.68,2.68,0,0,0,0,.4,1.11,1.11,0,0,0,1.12.94h2.2a4.3,4.3,0,0,0,4.37,3.41c1.88-.06,3.22-1.18,4-3.38H32.58a4.3,4.3,0,0,0,4.32,3.38c1.91,0,3.24-1.16,4.08-3.41.49,0,1,0,1.52,0A1.37,1.37,0,0,0,44,32V44H6Z"/><path d="M39.19,19.31H33.11V14C36.16,14.61,37.79,16.79,39.19,19.31Z"/></svg>