<?xml version="1.0" encoding="utf-8"?>
<!-- Generator: Adobe Illustrator 24.0.2, SVG Export Plug-In . SVG Version: 6.00 Build 0)  -->
<svg version="1.1" xmlns="http://www.w3.org/2000/svg" xmlns:xlink="http://www.w3.org/1999/xlink" x="0px" y="0px"
	 viewBox="0 0 174.7 35" style="enable-background:new 0 0 174.7 35;" xml:space="preserve">
<style type="text/css">
	.st0{fill:#14C6A4;}
	.st1{fill:#1C1E26;}
</style>
<g id="Layer_1">
	<g>
		<g>
			<path class="st0" d="M22.2,0h5.3c0,0,0,0,0,0c0,0,0,0,0,0c-5.4,0.7-9.6,8.2-9.6,17.4s4.3,16.7,9.6,17.4c0,0,0,0,0,0c0,0,0,0,0,0
				h-5.3c-5.8,0-10.5-7.8-10.5-17.5C11.8,7.8,16.5,0,22.2,0"/>
			<path class="st0" d="M10.5,0h5.3c0,0,0,0,0,0c0,0,0,0,0,0c-5.4,0.7-9.6,8.2-9.6,17.4s4.3,16.7,9.6,17.4c0,0,0,0,0,0c0,0,0,0,0,0
				h-5.3C4.7,35,0,27.2,0,17.5C0,7.8,4.7,0,10.5,0"/>
			<ellipse class="st0" cx="29.4" cy="8.7" rx="3.2" ry="4.4"/>
			<ellipse class="st0" cx="29.4" cy="26.2" rx="3.2" ry="4.4"/>
		</g>
		<g>
			<path class="st1" d="M43.9,17.6c0-5.1,3.8-8.9,9.1-8.9c4.6,0,7.9,2.8,8.8,6.8h-4.1c-0.7-1.8-2.4-3-4.7-3c-3,0-5,2.1-5,5.1
				c0,3,2,5.1,5,5.1c2.2,0,3.9-1.2,4.7-3h4.1c-0.8,4-4.2,6.8-8.8,6.8C47.6,26.5,43.9,22.7,43.9,17.6z"/>
			<path class="st1" d="M64.2,1.7h4.1v9.8c1.1-1.8,2.9-2.8,5.1-2.8c3.9,0,7.6,2.5,7.6,8.6V26h-4.1v-8.8c0-3.2-1.7-4.8-4.3-4.8
				c-2.5,0-4.3,1.6-4.3,4.8V26h-4.1L64.2,1.7L64.2,1.7z"/>
			<path class="st1" d="M83.5,4.2c0-1.6,1.1-2.7,2.7-2.7c1.6,0,2.7,1.2,2.7,2.7s-1.1,2.7-2.7,2.7C84.7,6.9,83.5,5.8,83.5,4.2z
				 M84.2,9.1h4.1V26h-4.1V9.1z"/>
			<path class="st1" d="M91.5,17.2c0-5.7,3.4-8.6,8.3-8.6c5,0,8.3,2.9,8.3,8.6V26h-4.1v-8.8c0-3.2-1.7-4.8-4.3-4.8
				c-2.6,0-4.3,1.5-4.3,4.8V26h-4.1L91.5,17.2L91.5,17.2z"/>
			<path class="st1" d="M110.4,17.6c0-5.1,3.8-8.9,9.1-8.9c4.6,0,7.9,2.8,8.8,6.8h-4.1c-0.7-1.8-2.4-3-4.7-3c-3,0-5,2.1-5,5.1
				c0,3,2,5.1,5,5.1c2.2,0,3.9-1.2,4.7-3h4.1c-0.8,4-4.2,6.8-8.8,6.8C114.2,26.5,110.4,22.7,110.4,17.6z"/>
			<path class="st1" d="M130.8,1.7h4.1v9.8c1.1-1.8,2.9-2.8,5.1-2.8c3.9,0,7.6,2.5,7.6,8.6V26h-4.1v-8.8c0-3.2-1.7-4.8-4.3-4.8
				c-2.5,0-4.3,1.6-4.3,4.8V26h-4.1L130.8,1.7L130.8,1.7z"/>
			<path class="st1" d="M150.1,4.2c0-1.6,1.1-2.7,2.7-2.7c1.6,0,2.7,1.2,2.7,2.7s-1.1,2.7-2.7,2.7C151.2,6.9,150.1,5.8,150.1,4.2z
				 M150.7,9.1h4.1V26h-4.1V9.1z"/>
			<path class="st1" d="M158,17.2c0-5.7,3.4-8.6,8.3-8.6c5,0,8.3,2.9,8.3,8.6V26h-4.1v-8.8c0-3.2-1.7-4.8-4.3-4.8S162,14,162,17.2
				V26h-4.1L158,17.2L158,17.2z"/>
		</g>
	</g>
</g>
<g id="Capa_2">
</g>
</svg>
