<?xml version="1.0" encoding="UTF-8"?><svg id="Capa_1" xmlns="http://www.w3.org/2000/svg" viewBox="0 0 210 99"><defs><style>.cls-1{font-family:Raleway-Black, Raleway;font-size:22.9px;}.cls-1,.cls-2{fill:#4eab00;}.cls-3{letter-spacing:.09em;}.cls-4{letter-spacing:.12em;}</style></defs><text class="cls-1" transform="translate(8.95 82.36)"><tspan class="cls-4" x="0" y="0">FRESHMARKE</tspan><tspan class="cls-3" x="180.78" y="0">T</tspan></text><path class="cls-2" d="M121.9,18.33c-.28-.36-.72-.57-1.18-.56l-35.41,.88,.7-4.55c.07-.43-.06-.86-.35-1.19s-.7-.51-1.13-.5l-9.27,.23c-.81,.02-1.45,.69-1.43,1.5,.02,.81,.69,1.44,1.5,1.43l7.53-.19-2.93,19.07h0l-.98,6.48c-.06,.43,.06,.86,.35,1.19,.22,.25,.52,.42,.84,.47,.09,.02,.19,.02,.29,.02l2.99-.07c-.92,1-1.42,2.3-1.38,3.66,.06,2.52,1.92,4.58,4.31,5,.33,.06,.68,.09,1.03,.08,2.87-.07,5.15-2.47,5.08-5.34h0c-.03-1.41-.63-2.67-1.57-3.59l11.64-.29c-.89,.96-1.42,2.25-1.39,3.66,.03,1.39,.61,2.69,1.62,3.65,.75,.72,1.68,1.18,2.68,1.36,.34,.06,.69,.09,1.04,.08,1.39-.04,2.69-.61,3.65-1.62,.96-1.01,1.47-2.33,1.43-3.72-.03-1.37-.59-2.64-1.56-3.59l3.1-.08c.81-.02,1.45-.69,1.43-1.5-.02-.81-.69-1.44-1.5-1.43l-30.92,.77,.54-3.54,34.32-.86c.65-.02,1.21-.46,1.38-1.09l3.84-14.56c.12-.44,.02-.92-.27-1.28Zm-15.61,24.99c.15,0,.31,0,.46,.03,.44,.08,.85,.28,1.18,.6,.44,.42,.69,.99,.71,1.6h0c.02,.61-.21,1.19-.63,1.63-.42,.44-.99,.69-1.6,.71-.61,.02-1.19-.21-1.63-.63-.44-.42-.69-.99-.71-1.6-.03-1.26,.97-2.31,2.23-2.34Zm-20.71,1.19c.42-.44,.99-.69,1.6-.71,.15,0,.31,0,.45,.03,1.05,.18,1.86,1.09,1.89,2.19h0c.03,1.26-.97,2.31-2.23,2.34-1.26,.03-2.31-.97-2.34-2.23-.02-.61,.21-1.19,.63-1.63Zm30.2-12.15l-32.7,.82,1.78-11.58,33.99-.85-3.06,11.62Z"/></svg>