<svg id="Capa_1" data-name="Capa 1" xmlns="http://www.w3.org/2000/svg" viewBox="0 0 291 427"><defs><style>.cls-1{fill:#052747;}.cls-2{fill:#052848;}.cls-3{fill:#0f2844;}.cls-4{fill:#142c48;}.cls-5{fill:#132237;}.cls-6{fill:#232e40;}.cls-7{fill:#011024;}.cls-8{fill:#1b293f;}.cls-9{fill:#182a42;}.cls-10{fill:#3f5b75;}.cls-11{fill:#193854;}.cls-12{fill:#7489a7;}</style></defs><path class="cls-1" d="M215.47,71.76l2.64.14c7.79,3.17,14.5,9,23.37,9.47-.55,2,.24,3.17,2.35,3.37.3,3.08,2.42,2.93,4.63,2.6l-.06-.06c-1.09,5.83,1.66,8.42,7.26,8.62l0-.07c.41,2.47-2.71,5.14-.23,7.29,8.17,7,9.18,17,11.51,26.51,2.52,10.33,1,20.78,1.22,31.18.34,16.26-3.87,31.64-10.18,46.5-1.64,3.88-.73,9.36-4.34,11.69-6.17,4-4.62,9.57-4.86,15l-.3-.39.36.34c-1.93.17-1.92,1.43-1.59,2.86l.06-.08c-7.1,1-6.9,6.42-7,11.64l-.46-.29.42.35c-8.38-1.44-6.44,5.32-7.63,9.6l.08-.08c-5.84,1.57-9.2,5-8.74,11.41l.05,0c-1.94-.09-4.16-.24-5.07,1.74-2,4.43-6.53,6.08-9.75,9.14-3.87,3.68-8,8.7-12.7,9.51-7.46,1.31-10,5.75-12.38,11.46l.13-.1a14.9,14.9,0,0,0-9,.92c-8.09,3.51-16.16,7-24.32,10.36-7.35,3-14.78,5.8-22.22,8.54-2.13.79-1.91,2.41-2.08,4a2.68,2.68,0,0,1-1.22.2c-8-3.39-13,2.73-19,5.79v0c-.14-4.34,1.44-8.83-1.12-13q.09-10.68.19-21.38c4-1.32,2.47-4.73,2.48-7.28q.14-69.27,0-138.53c0-2.48,1-5.3-1.5-7.34,0-.93,0-1.87,0-2.81,2-1.45,2-2.9,0-4.34q0-9.16,0-18.34l.15-10.21a20.41,20.41,0,0,0,13.86-4.54c4.61-3.56,7.53-2.66,11.67,2-.41-5.18,6.68-5.14,4.54-10.39l0-1.65.38-.13c2.81.5,5.49.72,6.61-2.79l-.12.07,3.16.3c.47.8.93.79,1.38,0l1.45-.06,1.42-1.39,5.72,0c1.23.28,2.54,2,3.62.33.41-.63-.47-2.09-.77-3.17.5-1.08,1-2.17,1.49-3.25l1.67-.69c2.44,1.32,5.21,1.79,7.52.5C184.24,74.83,199.43,71.59,215.47,71.76ZM186.38,240.27l-.08.07c5.13.17,9.29-.8,8.73-7.37l1.1-1.11c8.07-.71,17.09-13.54,15.33-21.81l.18-.36c1.15.47,2.52.82,3.1-.53,4.2-9.95,7.74-20.25,8.85-30.91,1.09-10.46,1-20.87-5.52-30.66-5.28-7.89-18.7-17-28.45-15.45a68.81,68.81,0,0,1-14.85,1.18c-4.77-.28-5.86,2-5,6.12l-.27-.23.31.18c-5.9.93-13.26-1.66-16,6.7l-.2.36-.41-.08c-3.67,1.63-2.19,4.93-2.2,7.52q-.15,46.13,0,92.24c0,2.48-1,5.31,1.47,7.35.49,1.34,1.68,1.33,2.81,1.43,4.86,1.19,8.65-.24,11.24-4.59l-.12.08c6.41.09,12.83.18,15.75-7.29l-.08.06C184.33,243.53,186.58,243.75,186.38,240.27Z"/><path class="cls-2" d="M89.29,336.72l-4.23-.31c-3.18-3.36-6.19-6.6-11.38-7.29-4.91-.65-8.88-3.61-9.87-8.88-.72-3.91-2.83-5.16-6.44-4.78l.24-.09c.09-3.09.27-6.18.27-9.27q0-88.52.06-177a4.32,4.32,0,0,0,4.25-2.87H65c2.69,9.14,9.45,14.5,18.28,13.81,5.88-.47,10.27.49,14.82,3.37v4.26c-2.44.22-3.06,1.77-3,3.95q0,14.66,0,29.31c0,2.18.6,3.74,3,4v60c-2.39.22-3,1.72-3,3.89q0,17.63,0,35.27c0,2.21.82,3.59,3.13,3.85q2.09,22.09,2.4,44.3C97.65,335.74,91.15,330.42,89.29,336.72Z"/><path class="cls-3" d="M125.38,400.76l-10.64-.05c-3.18-.1-5.94.26-5.19,4.6l0-.07c-8.49-.48-8.75-1.05-5.38-8.54,2-4.43,5.71-8.28,5-13.71,2.86-6.44,5.57-13,8.66-19.29,2-4.13,5.61-4.11,7.39-.36,6.35,13.35,13.58,26.31,18.43,40.36-1.53.05-2.63.58-2.68,2.32-.7,1.31-1.78,1.12-2.9.73C134.2,404,132.4,396.84,125.38,400.76Zm.57-10.13c-1.29-3.44-2.06-6.33-4.46-8.58-1.58,2.7-3.19,5.2-3.71,8.58Z"/><path class="cls-4" d="M79.27,362.4a2.76,2.76,0,0,1,3,1.21,11.64,11.64,0,0,0,8.69,7.1l0-.06c3.7,9,2.9,17.88-1,26.62-.13.3.32.86.5,1.29L90,399c-1-.33-1.36-.13-.85.91a.71.71,0,0,1-.65.67c-1-.5-1.27-.17-.89.83l-.46.47c-4.11-.74-7,1.12-9.17,4.4l-1.49.27c-4.07-2.87-8.68-1.14-13-1.32-3.72-.14-5.68-.92-5.59-5.16q.3-15.58,0-31.19c-.07-4.09,1.62-5.14,5.47-5.29C68.63,363.32,74.13,365.1,79.27,362.4ZM67.83,395.09a44.91,44.91,0,0,0,6.36-.07c5.8-.88,10-5.86,9.36-11.42-.63-5.93-4.22-9.25-10.11-10a48.57,48.57,0,0,0-5.66,0C62,379.77,66.05,387,65.6,393.76,65.57,394.15,67.05,394.65,67.83,395.09Z"/><path class="cls-3" d="M270.89,402.2c-7.26,6.55-16.41,6.44-21.59-.48-1.79-2.38-4.54-6-2.08-8.15,2.3-2,6.7-1.8,9.84.37,1.49,1,2.42,3.13,4.73,1.93,1.33-.69,2.34-1.76,2-3.4-.56-2.66-2.74-2.68-4.9-3.15-11.5-2.45-16.27-13.8-9.62-22.57a14,14,0,0,1,21.72-.92c2.14,2.45,5.16,6.13,2.85,8.6-2,2.14-6.82,1.87-9.86-.21-1.82-1.24-3.07-3.2-5.36-1.51a3.69,3.69,0,0,0-1.42,3c.62,2.35,2.66,3,5,3.17a10.25,10.25,0,0,1,9,5.94C272.75,390.62,270.64,396.39,270.89,402.2Z"/><path class="cls-3" d="M163,402.51,152,378.74c.17-1.46.16-2.84-1.59-3.4l.06.08c.29-1.36.14-2.52-1.41-3l.06.13c.09-1.18.13-2.37.27-3.54.22-1.77-.72-4.18,1.66-4.93s3.78,1.36,5.06,3,1.46,4.67,4.4,5.12l7.09,14.52c2.78-5.56,5.37-10.76,8-15.95,2.67-.36,3-2.81,4-4.58,1.43-2.53,3.66-2.91,6.12-2.45,3.13.59,2.09,3.19,2.24,5.18l-11,23.41c-3.95,1.33-4.35,5.31-5.88,8.29C168.94,404.79,166.39,405,163,402.51Z"/><path class="cls-3" d="M79.57,69.76l-1.32.82c-3.41.19-5-1.47-4.77-4.83l1.28-1.15c2,.1,3.12-.8,3-2.91l-.06.05c1.24-.1,2.62-.08,1.93-2a.85.85,0,0,1,.57-.46c1,.48,1.24.17.86-.81l.44-.47c3.87,1.28,5.12-.13,4-3.93l.28-.27c1.07.33,1.46-.07,1.21-1.14l.2-.19c1.08.26,1.52-.17,1.38-1.24l.08-.1c7.57,1.11,8.46-4.93,10.47-9.77l1.12-1.11c2.11.16,3.31-.67,3.18-2.93l-.1.12,1.85-1.81c8.06-7.44,16.53-13.68,28.44-9.51,3.37,1.18,4.68,2.95,1.13,5.6C119,40.52,105.58,52.87,90.32,62.54c-2,1.25-4,2.52-5.95,3.79l-2.09,1.44.12-.08C81,67.68,79.78,68.06,79.57,69.76Z"/><path class="cls-4" d="M207.58,378a71.63,71.63,0,0,0,8.52.33c4.25-.32,6.41.38,6.32,5.61s-2.64,5-6.28,5c-9.69-.05-10.59,1.24-6.6,8.68,1.82,3.31,5.28.85,7.67,2.18,1.49.83,2.91,1.82,3.08,3.6a1.63,1.63,0,0,1-1.94,1.58c-7.85-.72-16.89,3.37-22.75-5.54v-2.66c3.28-1.33,2.41-4.25,2.45-6.71.09-6.38.28-12.78,0-19.14-.27-5.32,2.22-7.31,7.1-7.3,1.89,0,3.85-.32,5.66.06,3.35.7,9.29-2.47,9.57,2.49.34,5.89-5.84,2-8.92,3.14a6.56,6.56,0,0,1-1.41.05C204.75,370.1,203.9,373.12,207.58,378Z"/><path class="cls-5" d="M248.73,234c.24-5.41-1.31-11,4.86-15,3.61-2.33,2.7-7.81,4.34-11.69,6.31-14.86,10.52-30.24,10.18-46.5-.22-10.4,1.3-20.85-1.22-31.18-2.33-9.52-3.34-19.47-11.51-26.51-2.48-2.15.64-4.82.23-7.29,11.18,15,15.11,32.38,15.68,50.62C272.26,177.76,264.33,206.89,248.73,234Z"/><path class="cls-6" d="M192.43,47.55c-3.25-.19-6,1.13-8.86,2.53-17.48,8.57-35,17-52.57,25.46-2.64,1.28-5.37,2.38-8,3.56l-.88-1.82,61.79-35.14,7.66-3.49C191.84,41.8,192.14,44.68,192.43,47.55Z"/><path class="cls-6" d="M186.61,63.2,131.89,85.91c-.22-.49-.44-1-.67-1.49l66.95-33.71,1.35-.53,1.73-1.07c9-3.29,4.27,4.51,5.84,7.21-4.23-2-7.22.89-10.5,2.65A32.72,32.72,0,0,0,186.61,63.2Z"/><path class="cls-7" d="M57.94,129.08q0,88.51-.06,177c0,3.09-.18,6.18-.27,9.27-1.92-1.9-1.56-4.38-1.56-6.7Q56,197,56.05,85.4a15.05,15.05,0,0,1,.28-2.11l1.63,0v40.05C58,125.26,58,127.17,57.94,129.08Z"/><path class="cls-6" d="M140.7,51.77q3.6-2.72,7.18-5.45c2.79-.57,4.88-2.33,7-4.07l8.62-5.1.23-.11,10.34-6.52c1.67-.08,3.88-1.33,3.68,2.12a48.32,48.32,0,0,0,.43,6.33c-8.42,1.33-15,6.68-22.52,10.1-3.18,1.45-6.32,3-9.48,4.51Z"/><path class="cls-8" d="M207.58,378c-3.68-4.91-2.83-7.93,2.43-8.65a6.56,6.56,0,0,0,1.41-.05c3.08-1.14,9.26,2.75,8.92-3.14-.28-5-6.22-1.79-9.57-2.49-1.81-.38-3.77-.06-5.66-.06-4.88,0-7.37,2-7.1,7.3.32,6.36.13,12.76,0,19.14,0,2.46.83,5.38-2.45,6.71-.1-10.46-.06-20.92-.36-31.38-.1-3.51,1.11-4.56,4.47-4.45,6.18.19,12.39.26,18.56,0,4-.18,5.84.48,6,5.26.13,5.24-2.54,4.79-6.08,5C213.53,371.45,206.11,368.13,207.58,378Z"/><path class="cls-5" d="M79.27,362.4c-5.14,2.7-10.64.92-15.95,1.14-3.85.15-5.54,1.2-5.47,5.29q.28,15.59,0,31.19c-.09,4.24,1.87,5,5.59,5.16,4.34.18,9-1.55,13,1.32C55.54,409,55.54,409,55.55,388.72c0-7.6.09-15.2-.1-22.8-.09-3.53.81-5.3,4.77-4.92C66.55,361.61,73.06,360,79.27,362.4Z"/><path class="cls-8" d="M150.9,35l-28.42,17.4c-.18-.93-.35-1.87-.53-2.8l17.82-13.36,3.72-2.54,1.89-1.15,4.25-3.16A17.34,17.34,0,0,0,155.94,25l3.74-2.56L163.5,21c.09,2.73,2.23,5.76-1.18,8h0c-.52-1.5-1.09-1.28-1.67,0Z"/><path class="cls-5" d="M126.52,324.88c.17-1.61,0-3.23,2.08-4,7.44-2.74,14.87-5.54,22.22-8.54C159,309,167.05,305.47,175.14,302a14.9,14.9,0,0,1,9-.92c-15.71,8.65-32.76,14.18-49.28,20.93C132.23,323.06,129.89,325.66,126.52,324.88Z"/><path class="cls-5" d="M184,301.14c2.34-5.71,4.92-10.15,12.38-11.46,4.67-.81,8.83-5.83,12.7-9.51,3.22-3.06,7.73-4.71,9.75-9.14.91-2,3.13-1.83,5.07-1.74C212.42,282.13,199.85,293.66,184,301.14Z"/><path class="cls-8" d="M162.59,82.22a124.67,124.67,0,0,1,30-10.92c7.65-1,15.33-3.78,22.88.46-16-.17-31.23,3.07-45.36,11C167.8,84,165,83.54,162.59,82.22Z"/><path class="cls-8" d="M195.6,399.45c5.86,8.91,14.9,4.82,22.75,5.54a1.63,1.63,0,0,0,1.94-1.58c-.17-1.78-1.59-2.77-3.08-3.6-2.39-1.33-5.85,1.13-7.67-2.18,3.06-.13,6.13-.15,9.17-.42,3.65-.33,5.62.36,5.46,4.86-.13,4-1.08,5.4-5.22,5.11a92.55,92.55,0,0,0-16.31,0C196.17,407.89,194,405.65,195.6,399.45Z"/><path class="cls-9" d="M57.37,315.46c3.61-.38,5.72.87,6.44,4.78,1,5.27,5,8.23,9.87,8.88,5.19.69,8.2,3.93,11.38,7.29C71.63,335,61.84,328.73,57.37,315.46Z"/><path class="cls-5" d="M58,83.31l-1.63,0c.9-6.14,7.26-7.31,10.43-11.44,1.82-2.36,4.46-4.08,6.72-6.1-.18,3.36,1.36,5,4.77,4.83L61.87,83.29Z"/><path class="cls-8" d="M236.07,374.59c-.06-4.52-10.43-6.5-3.36-12.54a3.65,3.65,0,0,1,5.64.61C241.9,367.24,239.09,370.92,236.07,374.59Z"/><path class="cls-6" d="M160.54,372.22c-2.94-.45-3-3.33-4.4-5.12s-2.56-3.82-5.06-3-1.44,3.16-1.66,4.93c-.14,1.17-.18,2.36-.27,3.54l-5.57-10.65C155.59,359.83,155.59,359.83,160.54,372.22Z"/><path class="cls-8" d="M109.17,383c.76,5.43-3,9.28-5,13.71-3.37,7.49-3.11,8.06,5.38,8.54-3.29,4.41-7.55.71-12.62,2.43Z"/><path class="cls-5" d="M106.33,330.87c6-3.06,11-9.18,19-5.79-6.18,3.24-12.35,6.49-19.11,8.4l-2.48-1.07Z"/><path class="cls-8" d="M241.48,81.37c-8.87-.5-15.58-6.3-23.37-9.47C227.3,71.6,234.62,75.91,241.48,81.37Z"/><path class="cls-5" d="M90.36,398.56c-.18-.43-.63-1-.5-1.29,3.91-8.74,4.71-17.59,1-26.62C97.49,380,97.33,389.22,90.36,398.56Z"/><path class="cls-6" d="M188,368.94c-.15-2,.89-4.59-2.24-5.18-2.46-.46-4.69-.08-6.12,2.45-1,1.77-1.35,4.22-4,4.58,1.71-3.45,1.6-8.4,6.09-9.61,2.81-.76,7.16-1.08,8.82.5C192.45,363.54,189.28,366.56,188,368.94Z"/><path class="cls-8" d="M163,402.51c3.43,2.52,6,2.28,8.13-1.87,1.53-3,1.93-7,5.88-8.29-1.57,3.7-3.12,7.41-4.7,11.1-1,2.27-2,4-5.16,3.8C163.65,407.07,163.68,404.65,163,402.51Z"/><path class="cls-9" d="M103.71,332.41l2.48,1.07a25.36,25.36,0,0,1-16.9,3.24c1.86-6.3,8.36-1,11.33-4.52Z"/><path class="cls-5" d="M270.89,402.2c-.25-5.81,1.86-11.58.24-17.4C276.06,390.67,275.86,396.47,270.89,402.2Z"/><path class="cls-5" d="M223.89,269.34c-.46-6.38,2.9-9.84,8.74-11.41C231,262.73,227.48,266.06,223.89,269.34Z"/><path class="cls-5" d="M99.2,41.34c-2,4.84-2.9,10.88-10.47,9.77A50.31,50.31,0,0,1,99.2,41.34Z"/><path class="cls-5" d="M232.55,258c1.19-4.28-.75-11,7.63-9.6C237.58,251.56,236.5,255.92,232.55,258Z"/><path class="cls-8" d="M125.38,400.76c7-3.92,8.82,3.23,12.69,6-2.2,1-4.38.82-5.11-1.64C131.74,401,128.56,401.05,125.38,400.76Z"/><path class="cls-5" d="M240.22,248.35c.14-5.22-.06-10.63,7-11.64A46.54,46.54,0,0,1,240.22,248.35Z"/><path class="cls-5" d="M255.66,95.9c-5.6-.2-8.35-2.79-7.26-8.62A22.94,22.94,0,0,1,255.66,95.9Z"/><path class="cls-5" d="M90.91,370.71a11.64,11.64,0,0,1-8.69-7.1C86.08,364.81,89.14,367,90.91,370.71Z"/><path class="cls-5" d="M78,406.23c2.19-3.28,5.06-5.14,9.17-4.4A15.1,15.1,0,0,1,78,406.23Z"/><path class="cls-8" d="M141,406c.05-1.74,1.15-2.27,2.68-2.32l1,2.88C143.42,406.38,142,407.43,141,406Z"/><path class="cls-8" d="M109.55,405.31c-.75-4.34,2-4.7,5.19-4.6C111.7,400.76,111.63,404.17,109.55,405.31Z"/><path class="cls-5" d="M85.58,54.05c1.09,3.8-.16,5.21-4,3.93Z"/><path class="cls-5" d="M248.46,87.34c-2.21.33-4.33.48-4.63-2.6l1.82-.15Z"/><path class="cls-8" d="M245.65,84.59l-1.82.15c-2.11-.2-2.9-1.32-2.34-3.37A7.35,7.35,0,0,1,245.65,84.59Z"/><path class="cls-5" d="M103.5,37.3c.13,2.26-1.07,3.09-3.18,2.93Z"/><path class="cls-5" d="M77.81,61.69c.07,2.11-1,3-3,2.91Z"/><path class="cls-6" d="M149.09,372.4c1.55.5,1.7,1.66,1.41,3A3.36,3.36,0,0,1,149.09,372.4Z"/><path class="cls-5" d="M247.2,236.79c-.33-1.43-.34-2.69,1.59-2.86Z"/><path class="cls-6" d="M150.44,375.34c1.75.56,1.76,1.94,1.59,3.4Z"/><path class="cls-5" d="M79.68,59.72c.69,1.94-.69,1.92-1.93,2Z"/><path class="cls-5" d="M87.58,401.36c-.38-1-.13-1.33.89-.83A1.49,1.49,0,0,1,87.58,401.36Z"/><path class="cls-5" d="M81.11,58.45c.38,1,.13,1.29-.86.81A1.55,1.55,0,0,1,81.11,58.45Z"/><path class="cls-5" d="M87.07,52.64c.25,1.07-.14,1.47-1.21,1.14Z"/><path class="cls-5" d="M105.25,35.61l-1.85,1.81Z"/><path class="cls-5" d="M88.65,51.21c.14,1.07-.3,1.5-1.38,1.24Z"/><path class="cls-5" d="M89.12,399.86c-.51-1-.12-1.24.85-.91A1.45,1.45,0,0,1,89.12,399.86Z"/><path class="cls-10" d="M103.71,332.41l-3.09-.21q-.28-22.18-2.4-44.29c1.8-2,1.15-4.52,1.13-6.82-.13-12.07.77-24.18-1.22-36.19v-60c2.79-12.41.48-24.82,0-37.22v-4.26a29.29,29.29,0,0,0,1.2-11.47,8.72,8.72,0,0,0,.11-10c-.5-4.38.89-8.56,1.4-12.83l2.85-.11c.71,3-2,7,2.63,8.89q0,9.18,0,18.34c-1.63,1.45-1.62,2.9,0,4.34,0,.94,0,1.88,0,2.81-1.19,1.07-1.26,2.49-1.25,3.93q.12,74.61.25,149.22-.09,10.69-.19,21.38c-2.13,4.54-2.7,8.95,1.12,13v0Z"/><path class="cls-3" d="M103.7,109l-2.85.11c-6.82,1.37-13.38-.87-20.07-1.46-4-5.08-10.74-1.27-15.44-4.92-1.44-1.12-1.44,2.12-1.74,3.54-.4-.1-.81-.18-1.21-.25L61,104.58l-1.24-.82.48,1.51,1.38,1.53c.54.66,1,1.47,2.09.85l-.07-.07c-.75,2.15.91,2.73,2.29,3.5l1.46,1.44,2,.83-.05,0c-.12,1.11.44,1.54,1.49,1.49l-.08-.06c2.56,3.34,5.53,6,10.11,5.77l-.1-.06c.26,2.67,2.53,2.68,4.34,3.3l-.18,7.32c-5.38-.62-9.08-5-14.17-6.3l.07,0c-2.41-3.84-6-6.4-9.51-9.14L59.81,115l.69,1.5c.41,4,4.63,5.12,6.16,8.26L65,126.21H62.19c-1.48-.84-2-3.06-4.23-2.85v-40l3.91,0c8.67,20.89,28,28.77,49,20,6.13-2.56,12.36-4.86,18.54-7.28,2.73,1.39,4.88-.38,7.18-1.31,2.14,5.25-5,5.21-4.54,10.39-4.14-4.65-7.06-5.55-11.67-2a20.41,20.41,0,0,1-13.86,4.54A2.8,2.8,0,0,0,103.7,109Z"/><path class="cls-11" d="M105.4,296.5q-.14-74.61-.25-149.22c0-1.44.06-2.86,1.25-3.93,2.49,2,1.5,4.86,1.5,7.34q.09,69.27,0,138.53C107.87,291.77,109.41,295.18,105.4,296.5Z"/><path class="cls-5" d="M211.64,209.69c6.13-13.83,10.68-28,8.48-43.44-3.85-27-23-37.83-48.31-27.35a15.57,15.57,0,0,1-2.06.54c-.84-4.1.25-6.4,5-6.12a68.81,68.81,0,0,0,14.85-1.18c9.75-1.54,23.17,7.56,28.45,15.45,6.55,9.79,6.61,20.2,5.52,30.66-1.11,10.66-4.65,21-8.85,30.91C214.16,210.51,212.79,210.16,211.64,209.69Z"/><path class="cls-7" d="M153.14,146.37q-.19,49.65-.42,99.3c0,2.6-.22,5.21-.33,7.81-2.51-2-1.47-4.87-1.47-7.35q-.1-46.12,0-92.24C151,151.3,149.47,148,153.14,146.37Z"/><path class="cls-5" d="M196.13,231.86a150.13,150.13,0,0,0,15.33-21.81C213.22,218.32,204.2,231.15,196.13,231.86Z"/><path class="cls-8" d="M143.45,90.21a91.25,91.25,0,0,1,17.47-7.3c-.49,1.08-1,2.17-1.49,3.25A2.62,2.62,0,0,0,156.58,89l-5.72,0-1.42,1.39L148,90.5a9.08,9.08,0,0,0-1.38,0Z"/><path class="cls-5" d="M169.79,139.39a87.28,87.28,0,0,1-16,6.7C156.53,137.73,163.89,140.32,169.79,139.39Z"/><path class="cls-5" d="M166.32,250.4l15.75-7.29C179.15,250.58,172.73,250.49,166.32,250.4Z"/><path class="cls-11" d="M106.33,330.85c-3.82-4-3.25-8.43-1.12-13C107.77,322,106.19,326.51,106.33,330.85Z"/><path class="cls-5" d="M186.3,240.34A28.54,28.54,0,0,1,195,233C195.59,239.54,191.43,240.51,186.3,240.34Z"/><path class="cls-5" d="M155.2,254.91a35.26,35.26,0,0,1,11.24-4.59C163.85,254.67,160.06,256.1,155.2,254.91Z"/><path class="cls-11" d="M103.7,109a2.8,2.8,0,0,1,2.78-1.32l-.15,10.21C101.74,116,104.41,112,103.7,109Z"/><path class="cls-8" d="M136.55,94.71c-2.3.93-4.45,2.7-7.18,1.31a15.5,15.5,0,0,1,7.21-3Z"/><path class="cls-3" d="M156.58,89a2.62,2.62,0,0,1,2.85-2.84c.3,1.08,1.18,2.54.77,3.17C159.12,91,157.81,89.28,156.58,89Z"/><path class="cls-11" d="M106.39,140.54c-1.63-1.44-1.64-2.89,0-4.34Q109.4,138.36,106.39,140.54Z"/><path class="cls-8" d="M137,92.93a12.58,12.58,0,0,1,6.6-2.79C142.45,93.65,139.77,93.43,137,92.93Z"/><path class="cls-5" d="M182,243.17c1.2-1.36,2.24-3,4.39-2.9C186.58,243.75,184.33,243.53,182,243.17Z"/><path class="cls-3" d="M149.44,90.44l1.42-1.39Z"/><path class="cls-3" d="M146.61,90.51a9.08,9.08,0,0,1,1.38,0C147.54,91.3,147.08,91.31,146.61,90.51Z"/><path class="cls-1" d="M65,126.21l1.62-1.5,4.14.11-.07,0c3.51,7,16,12.3,23,9.4l-8.85-3.1.18-7.32c1.39.43,2.64,1.47,4.24.9-.61,2.83-.06,6.3,3.28,4.09,5.15-3.4,5.25.63,6.74,3.18a29.29,29.29,0,0,1-1.2,11.47c-4.55-2.88-8.94-3.84-14.82-3.37C74.49,140.71,67.73,135.35,65,126.21Z"/><path class="cls-1" d="M98.13,244.9c2,12,1.09,24.12,1.22,36.19,0,2.3.67,4.79-1.13,6.82-2.31-.26-3.13-1.64-3.13-3.85q0-17.64,0-35.27C95.08,246.62,95.74,245.12,98.13,244.9Z"/><path class="cls-1" d="M98.14,147.65c.47,12.4,2.78,24.81,0,37.22-2.44-.22-3-1.78-3-4q0-14.65,0-29.31C95.08,149.42,95.7,147.87,98.14,147.65Z"/><path class="cls-1" d="M58,123.36c2.19-.21,2.75,2,4.23,2.85a4.32,4.32,0,0,1-4.25,2.87C58,127.17,58,125.26,58,123.36Z"/><path class="cls-8" d="M140.7,51.77l5.47,1.81c-13.28,7.73-26.84,14.94-40.73,21.5l-1.26-1.24Z"/><path class="cls-6" d="M115.72,56.83c-4.57,3-8.75,6.66-14.75,7.13l13.39-9.06Z"/><path class="cls-6" d="M122,49.62c.18.93.35,1.87.53,2.8l-6.76,4.41-1.36-1.93Z"/><path class="cls-8" d="M105.44,75.08c-1.23,1.53-3.56,1.85-4.12.61-.68-1.52,2.07-.83,2.86-1.85Z"/><path class="cls-5" d="M79.57,69.76c.21-1.7,1.38-2.08,2.83-2.07Z"/><path class="cls-5" d="M82.28,67.77l2.09-1.44Z"/><path class="cls-7" d="M67.78,373.64q0,10.73,0,21.45c-.78-.44-2.26-.94-2.23-1.33C66.05,387,62,379.77,67.78,373.64Z"/><path class="cls-1" d="M80.78,107.62c6.69.59,13.25,2.83,20.07,1.46-.51,4.27-1.9,8.45-1.4,12.83l-9.82,1.43c-2.54-2.25-5.62-2.84-8.89-2.89l.1.06c-2.52-3.41-5.72-5.64-10.11-5.77l.08.06c.33-1.32-.24-1.74-1.49-1.49l.05,0c0-.61,0-1.22.07-1.83,0-.82-.07-1.64-.1-2.47,1.89,0,3.71.09,5,1.73,3.44,4.2,7.34,2.81,11.74,1.41C84.4,109.86,80.7,111,80.78,107.62Z"/><path class="cls-3" d="M89.63,123.34l9.82-1.43a8.72,8.72,0,0,1-.11,10c-1.49-2.55-1.59-6.58-6.74-3.18-3.34,2.21-3.89-1.26-3.28-4.09A6.57,6.57,0,0,1,89.63,123.34Z"/><path class="cls-2" d="M80.78,107.62c-.08,3.42,3.62,2.24,5.35,4.57-4.4,1.4-8.3,2.79-11.74-1.41-1.34-1.64-3.16-1.75-5-1.73-1.06-1.68-2.76-1.38-4.35-1.4a4.12,4.12,0,0,0-1.4-.07l.07.07a2.93,2.93,0,0,0-.06-1.41c.3-1.42.3-4.66,1.74-3.54C70,106.35,76.82,102.54,80.78,107.62Z"/><path class="cls-12" d="M84.9,131.07l8.85,3.1c-7.07,2.9-19.51-2.42-23-9.4C75.82,126,79.52,130.45,84.9,131.07Z"/><path class="cls-12" d="M70.8,124.82l-4.14-.11c-1.53-3.14-5.75-4.28-6.16-8.26l.79-.78C64.75,118.42,68.39,121,70.8,124.82Z"/><path class="cls-12" d="M70.73,114.74c4.39.13,7.59,2.36,10.11,5.77C76.26,120.71,73.29,118.08,70.73,114.74Z"/><path class="cls-12" d="M89.63,123.34a6.57,6.57,0,0,0-.31,1.31c-1.6.57-2.85-.47-4.24-.9-1.81-.62-4.08-.63-4.34-3.3C84,120.5,87.09,121.09,89.63,123.34Z"/><path class="cls-12" d="M63.59,107.58a4.12,4.12,0,0,1,1.4.07l1.83,2.48-.94,1C64.5,110.31,62.84,109.73,63.59,107.58Z"/><path class="cls-12" d="M60.5,116.45l-.69-1.5,1.48.73Z"/><path class="cls-12" d="M60.18,105.27l-.47-1.51,1.24.82C60.7,104.82,60.44,105.05,60.18,105.27Z"/><path class="cls-12" d="M61.56,106.81c-.45-.52-.91-1-1.37-1.54.25-.22.51-.45.76-.69L62.38,106C62.11,106.26,61.83,106.53,61.56,106.81Z"/><path class="cls-12" d="M69.44,111.52c0,.61,0,1.22-.07,1.83l-2-.83,1-1.17A3.79,3.79,0,0,0,69.44,111.52Z"/><path class="cls-12" d="M63.6,106.24a2.93,2.93,0,0,1,.06,1.41c-1.06.62-1.55-.19-2.09-.85l.81-.81C62.79,106.06,63.2,106.14,63.6,106.24Z"/><path class="cls-12" d="M67.34,112.52l-1.46-1.44.94-1,1.56,1.22Z"/><path class="cls-12" d="M69.32,113.31c1.25-.25,1.82.17,1.49,1.49C69.76,114.85,69.2,114.42,69.32,113.31Z"/><path class="cls-3" d="M68.38,111.35l-1.56-1.22L65,107.65c1.59,0,3.29-.28,4.35,1.4,0,.83.06,1.65.1,2.47A3.79,3.79,0,0,1,68.38,111.35Z"/></svg>